<mxfile host="Electron" agent="Mozilla/5.0 (Windows NT 10.0; Win64; x64) AppleWebKit/537.36 (KHTML, like Gecko) draw.io/27.0.9 Chrome/134.0.6998.205 Electron/35.4.0 Safari/537.36" version="27.0.9">
  <diagram name="Page-1" id="MtmhdL_GCI0e8V4XPQBE">
    <mxGraphModel dx="2066" dy="1209" grid="1" gridSize="10" guides="1" tooltips="1" connect="1" arrows="1" fold="1" page="1" pageScale="1" pageWidth="850" pageHeight="1100" math="0" shadow="0">
      <root>
        <mxCell id="0" />
        <mxCell id="1" parent="0" />
        <mxCell id="j_1kFZAlHNJuLsq89PlB-1" value="" style="swimlane;startSize=0;fontSize=13;fontFamily=Times New Roman;strokeWidth=3;" vertex="1" parent="1">
          <mxGeometry x="190" y="170" width="530" height="350" as="geometry" />
        </mxCell>
        <mxCell id="j_1kFZAlHNJuLsq89PlB-14" value="Traffic light" style="text;html=1;align=center;verticalAlign=middle;resizable=0;points=[];autosize=1;strokeColor=none;fillColor=none;fontSize=13;fontFamily=Times New Roman;" vertex="1" parent="j_1kFZAlHNJuLsq89PlB-1">
          <mxGeometry x="190" width="90" height="30" as="geometry" />
        </mxCell>
        <mxCell id="j_1kFZAlHNJuLsq89PlB-24" value="Push button" style="ellipse;whiteSpace=wrap;html=1;fontSize=13;fontFamily=Times New Roman;strokeWidth=3;" vertex="1" parent="j_1kFZAlHNJuLsq89PlB-1">
          <mxGeometry x="30" y="115" width="100" height="70" as="geometry" />
        </mxCell>
        <mxCell id="j_1kFZAlHNJuLsq89PlB-42" value="Check current state" style="ellipse;whiteSpace=wrap;html=1;fontSize=13;fontFamily=Times New Roman;strokeWidth=3;" vertex="1" parent="j_1kFZAlHNJuLsq89PlB-1">
          <mxGeometry x="220" y="115" width="100" height="70" as="geometry" />
        </mxCell>
        <mxCell id="j_1kFZAlHNJuLsq89PlB-45" value="" style="html=1;labelBackgroundColor=#ffffff;startArrow=none;startFill=0;startSize=6;endArrow=classic;endFill=1;endSize=6;jettySize=auto;orthogonalLoop=1;strokeWidth=3;dashed=1;fontSize=13;rounded=0;fontFamily=Times New Roman;" edge="1" parent="j_1kFZAlHNJuLsq89PlB-1">
          <mxGeometry width="60" height="60" relative="1" as="geometry">
            <mxPoint x="170" y="230" as="sourcePoint" />
            <mxPoint x="230" y="170" as="targetPoint" />
          </mxGeometry>
        </mxCell>
        <mxCell id="j_1kFZAlHNJuLsq89PlB-41" value="Run normal traffic sequence" style="ellipse;whiteSpace=wrap;html=1;fontSize=13;fontFamily=Times New Roman;strokeWidth=3;" vertex="1" parent="j_1kFZAlHNJuLsq89PlB-1">
          <mxGeometry x="320" y="240" width="100" height="70" as="geometry" />
        </mxCell>
        <mxCell id="j_1kFZAlHNJuLsq89PlB-37" value="Activate walk signal" style="ellipse;whiteSpace=wrap;html=1;fontSize=13;fontFamily=Times New Roman;strokeWidth=3;" vertex="1" parent="j_1kFZAlHNJuLsq89PlB-1">
          <mxGeometry x="110" y="230" width="100" height="70" as="geometry" />
        </mxCell>
        <mxCell id="j_1kFZAlHNJuLsq89PlB-78" value="" style="html=1;labelBackgroundColor=#ffffff;startArrow=none;startFill=0;startSize=6;endArrow=classic;endFill=1;endSize=6;jettySize=auto;orthogonalLoop=1;strokeWidth=3;dashed=1;fontSize=13;rounded=0;exitX=1;exitY=0.5;exitDx=0;exitDy=0;entryX=0;entryY=0.5;entryDx=0;entryDy=0;fontFamily=Times New Roman;" edge="1" parent="j_1kFZAlHNJuLsq89PlB-1" source="j_1kFZAlHNJuLsq89PlB-24" target="j_1kFZAlHNJuLsq89PlB-42">
          <mxGeometry width="60" height="60" relative="1" as="geometry">
            <mxPoint x="560" y="470" as="sourcePoint" />
            <mxPoint x="620" y="410" as="targetPoint" />
            <Array as="points" />
          </mxGeometry>
        </mxCell>
        <mxCell id="j_1kFZAlHNJuLsq89PlB-80" value="&amp;lt;&amp;lt;include&amp;gt;&amp;gt;" style="edgeLabel;html=1;align=center;verticalAlign=middle;resizable=0;points=[];fontSize=13;fontFamily=Times New Roman;" vertex="1" connectable="0" parent="j_1kFZAlHNJuLsq89PlB-78">
          <mxGeometry x="0.0222" y="-2" relative="1" as="geometry">
            <mxPoint y="-12" as="offset" />
          </mxGeometry>
        </mxCell>
        <mxCell id="j_1kFZAlHNJuLsq89PlB-83" value="" style="html=1;labelBackgroundColor=#ffffff;startArrow=none;startFill=0;startSize=6;endArrow=classic;endFill=1;endSize=6;jettySize=auto;orthogonalLoop=1;strokeWidth=3;dashed=1;fontSize=14;rounded=0;exitX=0;exitY=0.5;exitDx=0;exitDy=0;entryX=0.99;entryY=0.614;entryDx=0;entryDy=0;entryPerimeter=0;" edge="1" parent="j_1kFZAlHNJuLsq89PlB-1" source="j_1kFZAlHNJuLsq89PlB-41" target="j_1kFZAlHNJuLsq89PlB-37">
          <mxGeometry width="60" height="60" relative="1" as="geometry">
            <mxPoint x="560" y="370" as="sourcePoint" />
            <mxPoint x="620" y="310" as="targetPoint" />
            <Array as="points" />
          </mxGeometry>
        </mxCell>
        <mxCell id="j_1kFZAlHNJuLsq89PlB-89" value="&lt;span style=&quot;font-family: &amp;quot;Times New Roman&amp;quot;; font-size: 13px; background-color: rgb(255, 255, 255);&quot;&gt;&amp;lt;&amp;lt;include&amp;gt;&amp;gt;&lt;/span&gt;" style="text;html=1;align=center;verticalAlign=middle;resizable=0;points=[];autosize=1;strokeColor=none;fillColor=none;" vertex="1" parent="j_1kFZAlHNJuLsq89PlB-1">
          <mxGeometry x="225" y="240" width="90" height="30" as="geometry" />
        </mxCell>
        <mxCell id="j_1kFZAlHNJuLsq89PlB-21" value="Pedestrian" style="shape=umlActor;html=1;verticalLabelPosition=bottom;verticalAlign=top;align=center;fontSize=13;fontFamily=Times New Roman;strokeWidth=3;" vertex="1" parent="1">
          <mxGeometry x="110" y="290" width="30" height="60" as="geometry" />
        </mxCell>
        <mxCell id="j_1kFZAlHNJuLsq89PlB-36" value="" style="endArrow=none;html=1;rounded=0;exitX=0.5;exitY=0.5;exitDx=0;exitDy=0;exitPerimeter=0;entryX=0;entryY=0.5;entryDx=0;entryDy=0;fontSize=13;fontFamily=Times New Roman;strokeWidth=3;" edge="1" parent="1" source="j_1kFZAlHNJuLsq89PlB-21" target="j_1kFZAlHNJuLsq89PlB-24">
          <mxGeometry width="50" height="50" relative="1" as="geometry">
            <mxPoint x="720" y="640" as="sourcePoint" />
            <mxPoint x="770" y="590" as="targetPoint" />
            <Array as="points" />
          </mxGeometry>
        </mxCell>
        <mxCell id="j_1kFZAlHNJuLsq89PlB-46" value="" style="html=1;labelBackgroundColor=#ffffff;startArrow=none;startFill=0;startSize=6;endArrow=classic;endFill=1;endSize=6;jettySize=auto;orthogonalLoop=1;strokeWidth=3;dashed=1;fontSize=13;rounded=0;fontFamily=Times New Roman;" edge="1" parent="1">
          <mxGeometry width="60" height="60" relative="1" as="geometry">
            <mxPoint x="560" y="410" as="sourcePoint" />
            <mxPoint x="500" y="340" as="targetPoint" />
          </mxGeometry>
        </mxCell>
        <mxCell id="j_1kFZAlHNJuLsq89PlB-48" value="&amp;lt;&amp;lt;extend&amp;gt;&amp;gt;" style="edgeLabel;html=1;align=center;verticalAlign=middle;resizable=0;points=[];fontSize=13;fontFamily=Times New Roman;" vertex="1" connectable="0" parent="j_1kFZAlHNJuLsq89PlB-46">
          <mxGeometry x="0.1271" y="-2" relative="1" as="geometry">
            <mxPoint as="offset" />
          </mxGeometry>
        </mxCell>
        <mxCell id="j_1kFZAlHNJuLsq89PlB-47" value="&lt;span style=&quot;background-color: rgb(255, 255, 255);&quot;&gt;&amp;lt;&amp;lt;extend&amp;gt;&amp;gt;&lt;/span&gt;" style="text;html=1;align=center;verticalAlign=middle;resizable=0;points=[];autosize=1;strokeColor=none;fillColor=none;fontSize=13;fontFamily=Times New Roman;" vertex="1" parent="1">
          <mxGeometry x="345" y="348" width="90" height="30" as="geometry" />
        </mxCell>
        <mxCell id="j_1kFZAlHNJuLsq89PlB-49" value="" style="swimlane;startSize=0;fontFamily=Times New Roman;fontSize=13;strokeWidth=3;" vertex="1" parent="1">
          <mxGeometry x="1140" y="160" width="540" height="340" as="geometry" />
        </mxCell>
        <mxCell id="j_1kFZAlHNJuLsq89PlB-50" value="Traffic light" style="text;html=1;align=center;verticalAlign=middle;resizable=0;points=[];autosize=1;strokeColor=none;fillColor=none;fontFamily=Times New Roman;fontSize=13;" vertex="1" parent="j_1kFZAlHNJuLsq89PlB-49">
          <mxGeometry x="190" width="90" height="30" as="geometry" />
        </mxCell>
        <mxCell id="j_1kFZAlHNJuLsq89PlB-51" value="Vehicle Detection" style="ellipse;whiteSpace=wrap;html=1;fontFamily=Times New Roman;fontSize=13;strokeWidth=3;" vertex="1" parent="j_1kFZAlHNJuLsq89PlB-49">
          <mxGeometry x="30" y="115" width="100" height="70" as="geometry" />
        </mxCell>
        <mxCell id="j_1kFZAlHNJuLsq89PlB-52" value="Set all lghts to Yellow" style="ellipse;whiteSpace=wrap;html=1;fontFamily=Times New Roman;fontSize=13;strokeWidth=3;" vertex="1" parent="j_1kFZAlHNJuLsq89PlB-49">
          <mxGeometry x="220" y="115" width="100" height="70" as="geometry" />
        </mxCell>
        <mxCell id="j_1kFZAlHNJuLsq89PlB-56" value="Return to normal sequnce" style="ellipse;whiteSpace=wrap;html=1;fontFamily=Times New Roman;fontSize=13;strokeWidth=3;" vertex="1" parent="j_1kFZAlHNJuLsq89PlB-49">
          <mxGeometry x="410" y="115" width="100" height="70" as="geometry" />
        </mxCell>
        <mxCell id="j_1kFZAlHNJuLsq89PlB-75" value="" style="html=1;labelBackgroundColor=#ffffff;startArrow=none;startFill=0;startSize=6;endArrow=classic;endFill=1;endSize=6;jettySize=auto;orthogonalLoop=1;strokeWidth=3;dashed=1;fontSize=13;rounded=0;entryX=0;entryY=0.5;entryDx=0;entryDy=0;exitX=1;exitY=0.5;exitDx=0;exitDy=0;fontFamily=Times New Roman;" edge="1" parent="j_1kFZAlHNJuLsq89PlB-49" source="j_1kFZAlHNJuLsq89PlB-52" target="j_1kFZAlHNJuLsq89PlB-56">
          <mxGeometry width="60" height="60" relative="1" as="geometry">
            <mxPoint x="370" y="240" as="sourcePoint" />
            <mxPoint x="310" y="170" as="targetPoint" />
          </mxGeometry>
        </mxCell>
        <mxCell id="j_1kFZAlHNJuLsq89PlB-76" value="&lt;span&gt;&amp;lt;&amp;lt;include&amp;gt;&amp;gt;&lt;/span&gt;" style="edgeLabel;html=1;align=center;verticalAlign=middle;resizable=0;points=[];fontFamily=Times New Roman;fontSize=13;" vertex="1" connectable="0" parent="j_1kFZAlHNJuLsq89PlB-75">
          <mxGeometry x="0.1271" y="-2" relative="1" as="geometry">
            <mxPoint x="-11" y="8" as="offset" />
          </mxGeometry>
        </mxCell>
        <mxCell id="j_1kFZAlHNJuLsq89PlB-92" value="" style="html=1;labelBackgroundColor=#ffffff;startArrow=none;startFill=0;startSize=6;endArrow=classic;endFill=1;endSize=6;jettySize=auto;orthogonalLoop=1;strokeWidth=3;dashed=1;fontSize=13;rounded=0;entryX=0;entryY=0.5;entryDx=0;entryDy=0;exitX=1;exitY=0.5;exitDx=0;exitDy=0;fontFamily=Times New Roman;" edge="1" parent="j_1kFZAlHNJuLsq89PlB-49">
          <mxGeometry width="60" height="60" relative="1" as="geometry">
            <mxPoint x="130" y="149.5" as="sourcePoint" />
            <mxPoint x="220" y="149.5" as="targetPoint" />
          </mxGeometry>
        </mxCell>
        <mxCell id="j_1kFZAlHNJuLsq89PlB-93" value="&lt;span&gt;&amp;lt;&amp;lt;include&amp;gt;&amp;gt;&lt;/span&gt;" style="edgeLabel;html=1;align=center;verticalAlign=middle;resizable=0;points=[];fontFamily=Times New Roman;fontSize=13;" vertex="1" connectable="0" parent="j_1kFZAlHNJuLsq89PlB-92">
          <mxGeometry x="0.1271" y="-2" relative="1" as="geometry">
            <mxPoint x="-11" y="9" as="offset" />
          </mxGeometry>
        </mxCell>
        <mxCell id="j_1kFZAlHNJuLsq89PlB-58" value="Emergency Vehicle" style="shape=umlActor;html=1;verticalLabelPosition=bottom;verticalAlign=top;align=center;fontFamily=Times New Roman;fontSize=13;strokeWidth=3;" vertex="1" parent="1">
          <mxGeometry x="1060" y="280" width="30" height="60" as="geometry" />
        </mxCell>
        <mxCell id="j_1kFZAlHNJuLsq89PlB-70" value="" style="endArrow=none;html=1;rounded=0;exitX=0.5;exitY=0.5;exitDx=0;exitDy=0;exitPerimeter=0;entryX=0;entryY=0.5;entryDx=0;entryDy=0;fontFamily=Times New Roman;fontSize=13;strokeWidth=3;" edge="1" parent="1" source="j_1kFZAlHNJuLsq89PlB-58" target="j_1kFZAlHNJuLsq89PlB-51">
          <mxGeometry width="50" height="50" relative="1" as="geometry">
            <mxPoint x="1670" y="630" as="sourcePoint" />
            <mxPoint x="1720" y="580" as="targetPoint" />
            <Array as="points" />
          </mxGeometry>
        </mxCell>
        <mxCell id="j_1kFZAlHNJuLsq89PlB-91" style="edgeStyle=orthogonalEdgeStyle;rounded=0;orthogonalLoop=1;jettySize=auto;html=1;exitX=0.5;exitY=1;exitDx=0;exitDy=0;fontFamily=Times New Roman;fontSize=13;" edge="1" parent="1" source="j_1kFZAlHNJuLsq89PlB-49" target="j_1kFZAlHNJuLsq89PlB-49">
          <mxGeometry relative="1" as="geometry" />
        </mxCell>
      </root>
    </mxGraphModel>
  </diagram>
</mxfile>
